<svg width="1440" height="1024" viewBox="0 0 1440 1024" fill="none" xmlns="http://www.w3.org/2000/svg">
<g clip-path="url(#clip0_662_2544)">
<rect width="1440" height="1024" fill="white"/>
<rect width="1440" height="1024" fill="url(#paint0_radial_662_2544)"/>
<rect width="1440" height="1024" fill="url(#paint1_radial_662_2544)"/>
<g filter="url(#filter0_f_662_2544)">
<path d="M1104.4 642.928C1119.93 655.965 1141.74 659.01 1159.53 649.282C1210.2 621.574 1251.83 587.676 1282.2 549.264C1318.3 503.599 1337.6 452.682 1338.7 400.159C1339.8 347.637 1322.68 294.809 1288.57 245.457C1254.46 196.106 1204.2 151.453 1141.39 114.695C1078.57 77.9366 1004.77 49.9832 925.248 32.8362C845.729 15.6892 762.466 9.77268 681.421 15.5104C600.376 21.2481 523.554 38.4981 456.456 66.0251C421.278 80.4569 389.229 97.5264 360.884 116.85C325.224 141.161 335.996 191.931 376.029 208.055V208.055C399.94 217.685 426.99 210.992 447.14 194.915C472.688 174.53 503.266 156.908 537.896 142.701C588.116 122.098 645.614 109.187 706.272 104.893C766.931 100.598 829.25 105.027 888.766 117.86C948.283 130.694 1003.52 151.616 1050.54 179.128C1097.55 206.64 1135.17 240.061 1160.7 276.998C1186.23 313.935 1199.04 353.475 1198.22 392.786C1197.39 432.096 1182.95 470.205 1155.93 504.384C1143.53 520.068 1128.62 534.746 1111.48 548.215C1081.55 571.72 1075.25 618.465 1104.4 642.928V642.928Z" fill="url(#paint2_linear_662_2544)"/>
</g>
<g opacity="0.7" filter="url(#filter1_f_662_2544)">
<path d="M786.441 858.338C799.705 876.601 800.705 901.309 787.18 919.378C755.363 961.883 718.696 995.9 678.877 1019.71C629.865 1049.01 577.292 1062.13 524.92 1058.11C472.549 1054.09 421.676 1033.05 375.944 996.478C330.211 959.908 290.752 908.719 260.39 846.577C230.028 784.435 209.515 712.877 200.32 637.028C191.125 561.178 193.475 482.912 207.203 407.836C220.93 332.759 245.695 262.729 279.724 202.76C297.438 171.543 317.434 143.455 339.283 118.983C368.002 86.8177 417.099 103.002 429.889 144.182C438.111 170.658 427.754 198.985 408.146 218.583C387.573 239.146 368.966 263.904 352.923 292.177C328.076 335.965 309.993 387.099 299.97 441.918C289.946 496.737 288.23 553.884 294.944 609.268C301.658 664.651 316.636 716.901 338.805 762.275C360.975 807.649 389.787 845.026 423.18 871.728C456.572 898.431 493.718 913.798 531.959 916.731C570.199 919.663 608.587 910.088 644.374 888.69C659.609 879.581 674.212 868.425 688.005 855.403C716.206 828.778 763.651 826.956 786.441 858.338Z" fill="url(#paint3_linear_662_2544)"/>
</g>
<g filter="url(#filter2_f_662_2544)">
<path d="M796.15 286.939C834.543 219.974 815.928 130.81 741.105 111.839C715.046 105.232 688.33 101.596 661.368 101.067C589.542 99.6592 518.765 120.361 456.863 160.883C394.96 201.405 344.345 260.168 310.612 330.676C276.88 401.184 261.345 480.689 265.725 560.401C270.105 640.112 294.229 716.924 335.431 782.343C376.632 847.763 433.305 899.241 499.184 931.085C565.062 962.93 637.58 973.901 708.717 962.785C736.808 958.395 764.252 950.629 790.592 939.709C860.591 910.691 867.98 821.861 822.843 760.996L762.148 679.155C742.319 652.417 702.829 650.975 669.941 656.115C649.681 659.28 629.029 656.156 610.267 647.087C591.505 638.018 575.365 623.357 563.631 604.726C551.898 586.095 545.027 564.22 543.78 541.519C542.532 518.818 546.957 496.175 556.563 476.095C566.17 456.015 580.585 439.279 598.214 427.739C615.844 416.199 636 410.303 656.456 410.704C689.54 411.353 728.364 405.168 744.823 376.461L796.15 286.939Z" fill="url(#paint4_linear_662_2544)"/>
</g>
<path d="M246.213 506.004V472.871H284.115C293.653 472.871 302.103 471.449 309.466 468.604C316.996 465.592 323.355 461.409 328.543 456.054C333.73 450.699 337.662 444.424 340.34 437.229C343.185 429.866 344.607 421.75 344.607 412.881C344.607 403.678 343.185 395.478 340.34 388.283C337.662 380.92 333.73 374.645 328.543 369.457C323.355 364.27 316.996 360.338 309.466 357.66C302.103 354.983 293.653 353.644 284.115 353.644H246.213V320.511H281.856C298.422 320.511 312.897 322.938 325.28 327.791C337.662 332.643 347.954 339.337 356.153 347.871C364.353 356.238 370.46 365.86 374.477 376.736C378.66 387.446 380.752 398.574 380.752 410.12V415.642C380.752 426.686 378.66 437.563 374.477 448.273C370.46 458.982 364.353 468.688 356.153 477.389C347.954 486.091 337.662 493.035 325.28 498.223C312.897 503.41 298.422 506.004 281.856 506.004H246.213ZM215.59 506.004V320.511H251.233V506.004H215.59ZM443.793 509.267C428.063 509.267 415.848 504.08 407.146 493.705C398.612 483.33 394.345 467.935 394.345 447.52V368.453H429.235V450.532C429.235 458.899 431.578 465.592 436.263 470.612C440.948 475.465 447.307 477.891 455.339 477.891C463.371 477.891 469.898 475.298 474.918 470.11C480.105 464.923 482.699 457.895 482.699 449.026V368.453H517.589V505H489.978V447.018H492.739C492.739 460.739 490.982 472.202 487.468 481.406C483.954 490.609 478.683 497.554 471.655 502.239C464.627 506.924 455.841 509.267 445.299 509.267H443.793ZM545.117 505V368.704H572.727V427.188H570.217C570.217 413.467 571.974 402.004 575.488 392.801C579.002 383.43 584.19 376.402 591.051 371.716C598.079 366.864 606.78 364.437 617.155 364.437H618.661C629.203 364.437 637.905 366.864 644.766 371.716C651.794 376.402 656.981 383.43 660.328 392.801C663.842 402.004 665.599 413.467 665.599 427.188H656.814C656.814 413.467 658.571 402.004 662.085 392.801C665.766 383.43 671.038 376.402 677.898 371.716C684.926 366.864 693.628 364.437 704.003 364.437H705.509C716.051 364.437 724.836 366.864 731.864 371.716C738.893 376.402 744.164 383.43 747.678 392.801C751.359 402.004 753.2 413.467 753.2 427.188V505H718.31V423.925C718.31 415.391 716.135 408.614 711.784 403.594C707.433 398.407 701.242 395.813 693.21 395.813C685.177 395.813 678.735 398.49 673.882 403.845C669.029 409.032 666.603 416.061 666.603 424.929V505H631.713V423.925C631.713 415.391 629.538 408.614 625.187 403.594C620.837 398.407 614.645 395.813 606.613 395.813C598.581 395.813 592.138 398.49 587.286 403.845C582.433 409.032 580.006 416.061 580.006 424.929V505H545.117ZM777.934 505V368.704H805.544V427.188H803.034C803.034 413.467 804.791 402.004 808.305 392.801C811.819 383.43 817.007 376.402 823.867 371.716C830.896 366.864 839.597 364.437 849.972 364.437H851.478C862.02 364.437 870.722 366.864 877.583 371.716C884.611 376.402 889.798 383.43 893.145 392.801C896.659 402.004 898.416 413.467 898.416 427.188H889.631C889.631 413.467 891.388 402.004 894.902 392.801C898.583 383.43 903.854 376.402 910.715 371.716C917.743 366.864 926.445 364.437 936.82 364.437H938.326C948.868 364.437 957.653 366.864 964.681 371.716C971.709 376.402 976.98 383.43 980.495 392.801C984.176 402.004 986.017 413.467 986.017 427.188V505H951.127V423.925C951.127 415.391 948.952 408.614 944.601 403.594C940.25 398.407 934.059 395.813 926.026 395.813C917.994 395.813 911.552 398.49 906.699 403.845C901.846 409.032 899.42 416.061 899.42 424.929V505H864.53V423.925C864.53 415.391 862.355 408.614 858.004 403.594C853.653 398.407 847.462 395.813 839.43 395.813C831.398 395.813 824.955 398.49 820.102 403.845C815.25 409.032 812.823 416.061 812.823 424.929V505H777.934ZM1005.75 558.715V528.845H1031.36C1036.21 528.845 1040.23 528.176 1043.4 526.837C1046.75 525.666 1049.51 523.658 1051.69 520.813C1053.86 518.136 1055.54 514.371 1056.71 509.518L1093.35 368.704H1126.74L1086.33 517.048C1083.65 527.256 1079.88 535.372 1075.03 541.396C1070.18 547.587 1063.9 552.022 1056.21 554.699C1048.68 557.376 1039.3 558.715 1028.09 558.715H1005.75ZM1048.17 501.988V474.377H1077.29V501.988H1048.17ZM1036.38 501.988L992.2 368.704H1027.34L1069.26 501.988H1036.38Z" fill="white"/>
<path d="M220.422 597.211C220.422 596.508 220.312 595.883 220.094 595.336C219.891 594.789 219.523 594.289 218.992 593.836C218.461 593.383 217.711 592.945 216.742 592.523C215.789 592.086 214.57 591.641 213.086 591.188C211.461 590.688 209.961 590.133 208.586 589.523C207.227 588.898 206.039 588.18 205.023 587.367C204.008 586.539 203.219 585.594 202.656 584.531C202.094 583.453 201.812 582.211 201.812 580.805C201.812 579.414 202.102 578.148 202.68 577.008C203.273 575.867 204.109 574.883 205.188 574.055C206.281 573.211 207.57 572.562 209.055 572.109C210.539 571.641 212.18 571.406 213.977 571.406C216.508 571.406 218.688 571.875 220.516 572.812C222.359 573.75 223.773 575.008 224.758 576.586C225.758 578.164 226.258 579.906 226.258 581.812H220.422C220.422 580.688 220.18 579.695 219.695 578.836C219.227 577.961 218.508 577.273 217.539 576.773C216.586 576.273 215.375 576.023 213.906 576.023C212.516 576.023 211.359 576.234 210.438 576.656C209.516 577.078 208.828 577.648 208.375 578.367C207.922 579.086 207.695 579.898 207.695 580.805C207.695 581.445 207.844 582.031 208.141 582.562C208.438 583.078 208.891 583.562 209.5 584.016C210.109 584.453 210.875 584.867 211.797 585.258C212.719 585.648 213.805 586.023 215.055 586.383C216.945 586.945 218.594 587.57 220 588.258C221.406 588.93 222.578 589.695 223.516 590.555C224.453 591.414 225.156 592.391 225.625 593.484C226.094 594.562 226.328 595.789 226.328 597.164C226.328 598.602 226.039 599.898 225.461 601.055C224.883 602.195 224.055 603.172 222.977 603.984C221.914 604.781 220.633 605.398 219.133 605.836C217.648 606.258 215.992 606.469 214.164 606.469C212.523 606.469 210.906 606.25 209.312 605.812C207.734 605.375 206.297 604.711 205 603.82C203.703 602.914 202.672 601.789 201.906 600.445C201.141 599.086 200.758 597.5 200.758 595.688H206.641C206.641 596.797 206.828 597.742 207.203 598.523C207.594 599.305 208.133 599.945 208.82 600.445C209.508 600.93 210.305 601.289 211.211 601.523C212.133 601.758 213.117 601.875 214.164 601.875C215.539 601.875 216.688 601.68 217.609 601.289C218.547 600.898 219.25 600.352 219.719 599.648C220.188 598.945 220.422 598.133 220.422 597.211ZM243.227 599.766L252.203 571.875H258.695L246.461 606H242.078L243.227 599.766ZM234.93 571.875L243.836 599.766L245.055 606H240.648L228.461 571.875H234.93ZM288.391 588.562V601.594C287.906 602.234 287.148 602.938 286.117 603.703C285.102 604.453 283.75 605.102 282.062 605.648C280.375 606.195 278.273 606.469 275.758 606.469C273.617 606.469 271.656 606.109 269.875 605.391C268.094 604.656 266.555 603.586 265.258 602.18C263.977 600.773 262.984 599.062 262.281 597.047C261.578 595.016 261.227 592.703 261.227 590.109V587.742C261.227 585.164 261.547 582.867 262.188 580.852C262.844 578.82 263.781 577.102 265 575.695C266.219 574.289 267.688 573.227 269.406 572.508C271.141 571.773 273.102 571.406 275.289 571.406C278.086 571.406 280.398 571.875 282.227 572.812C284.07 573.734 285.492 575.016 286.492 576.656C287.492 578.297 288.125 580.172 288.391 582.281H282.625C282.438 581.094 282.07 580.031 281.523 579.094C280.992 578.156 280.227 577.422 279.227 576.891C278.242 576.344 276.961 576.07 275.383 576.07C274.023 576.07 272.828 576.328 271.797 576.844C270.766 577.359 269.906 578.117 269.219 579.117C268.547 580.117 268.039 581.336 267.695 582.773C267.352 584.211 267.18 585.852 267.18 587.695V590.109C267.18 591.984 267.375 593.648 267.766 595.102C268.172 596.555 268.75 597.781 269.5 598.781C270.266 599.781 271.195 600.539 272.289 601.055C273.383 601.555 274.617 601.805 275.992 601.805C277.336 601.805 278.438 601.695 279.297 601.477C280.156 601.242 280.836 600.969 281.336 600.656C281.852 600.328 282.25 600.016 282.531 599.719V592.945H275.43V588.562H288.391ZM321.766 600.75V570H327.438V606H322.305L321.766 600.75ZM305.266 593.602V593.109C305.266 591.188 305.492 589.438 305.945 587.859C306.398 586.266 307.055 584.898 307.914 583.758C308.773 582.602 309.82 581.719 311.055 581.109C312.289 580.484 313.68 580.172 315.227 580.172C316.758 580.172 318.102 580.469 319.258 581.062C320.414 581.656 321.398 582.508 322.211 583.617C323.023 584.711 323.672 586.023 324.156 587.555C324.641 589.07 324.984 590.758 325.188 592.617V594.188C324.984 596 324.641 597.656 324.156 599.156C323.672 600.656 323.023 601.953 322.211 603.047C321.398 604.141 320.406 604.984 319.234 605.578C318.078 606.172 316.727 606.469 315.18 606.469C313.648 606.469 312.266 606.148 311.031 605.508C309.812 604.867 308.773 603.969 307.914 602.812C307.055 601.656 306.398 600.297 305.945 598.734C305.492 597.156 305.266 595.445 305.266 593.602ZM310.914 593.109V593.602C310.914 594.758 311.016 595.836 311.219 596.836C311.438 597.836 311.773 598.719 312.227 599.484C312.68 600.234 313.266 600.828 313.984 601.266C314.719 601.688 315.594 601.898 316.609 601.898C317.891 601.898 318.945 601.617 319.773 601.055C320.602 600.492 321.25 599.734 321.719 598.781C322.203 597.812 322.531 596.734 322.703 595.547V591.305C322.609 590.383 322.414 589.523 322.117 588.727C321.836 587.93 321.453 587.234 320.969 586.641C320.484 586.031 319.883 585.562 319.164 585.234C318.461 584.891 317.625 584.719 316.656 584.719C315.625 584.719 314.75 584.938 314.031 585.375C313.312 585.812 312.719 586.414 312.25 587.18C311.797 587.945 311.461 588.836 311.242 589.852C311.023 590.867 310.914 591.953 310.914 593.109ZM348.602 600.023V580.641H354.273V606H348.93L348.602 600.023ZM349.398 594.75L351.297 594.703C351.297 596.406 351.109 597.977 350.734 599.414C350.359 600.836 349.781 602.078 349 603.141C348.219 604.188 347.219 605.008 346 605.602C344.781 606.18 343.32 606.469 341.617 606.469C340.383 606.469 339.25 606.289 338.219 605.93C337.188 605.57 336.297 605.016 335.547 604.266C334.812 603.516 334.242 602.539 333.836 601.336C333.43 600.133 333.227 598.695 333.227 597.023V580.641H338.875V597.07C338.875 597.992 338.984 598.766 339.203 599.391C339.422 600 339.719 600.492 340.094 600.867C340.469 601.242 340.906 601.508 341.406 601.664C341.906 601.82 342.438 601.898 343 601.898C344.609 601.898 345.875 601.586 346.797 600.961C347.734 600.32 348.398 599.461 348.789 598.383C349.195 597.305 349.398 596.094 349.398 594.75ZM365.711 585.797V606H360.062V580.641H365.383L365.711 585.797ZM364.797 592.383L362.875 592.359C362.875 590.609 363.094 588.992 363.531 587.508C363.969 586.023 364.609 584.734 365.453 583.641C366.297 582.531 367.344 581.68 368.594 581.086C369.859 580.477 371.32 580.172 372.977 580.172C374.133 580.172 375.188 580.344 376.141 580.688C377.109 581.016 377.945 581.539 378.648 582.258C379.367 582.977 379.914 583.898 380.289 585.023C380.68 586.148 380.875 587.508 380.875 589.102V606H375.227V589.594C375.227 588.359 375.039 587.391 374.664 586.688C374.305 585.984 373.781 585.484 373.094 585.188C372.422 584.875 371.617 584.719 370.68 584.719C369.617 584.719 368.711 584.922 367.961 585.328C367.227 585.734 366.625 586.289 366.156 586.992C365.688 587.695 365.344 588.508 365.125 589.43C364.906 590.352 364.797 591.336 364.797 592.383ZM380.523 590.883L377.875 591.469C377.875 589.938 378.086 588.492 378.508 587.133C378.945 585.758 379.578 584.555 380.406 583.523C381.25 582.477 382.289 581.656 383.523 581.062C384.758 580.469 386.172 580.172 387.766 580.172C389.062 580.172 390.219 580.352 391.234 580.711C392.266 581.055 393.141 581.602 393.859 582.352C394.578 583.102 395.125 584.078 395.5 585.281C395.875 586.469 396.062 587.906 396.062 589.594V606H390.391V589.57C390.391 588.289 390.203 587.297 389.828 586.594C389.469 585.891 388.953 585.406 388.281 585.141C387.609 584.859 386.805 584.719 385.867 584.719C384.992 584.719 384.219 584.883 383.547 585.211C382.891 585.523 382.336 585.969 381.883 586.547C381.43 587.109 381.086 587.758 380.852 588.492C380.633 589.227 380.523 590.023 380.523 590.883ZM407.523 585.797V606H401.875V580.641H407.195L407.523 585.797ZM406.609 592.383L404.688 592.359C404.688 590.609 404.906 588.992 405.344 587.508C405.781 586.023 406.422 584.734 407.266 583.641C408.109 582.531 409.156 581.68 410.406 581.086C411.672 580.477 413.133 580.172 414.789 580.172C415.945 580.172 417 580.344 417.953 580.688C418.922 581.016 419.758 581.539 420.461 582.258C421.18 582.977 421.727 583.898 422.102 585.023C422.492 586.148 422.688 587.508 422.688 589.102V606H417.039V589.594C417.039 588.359 416.852 587.391 416.477 586.688C416.117 585.984 415.594 585.484 414.906 585.188C414.234 584.875 413.43 584.719 412.492 584.719C411.43 584.719 410.523 584.922 409.773 585.328C409.039 585.734 408.438 586.289 407.969 586.992C407.5 587.695 407.156 588.508 406.938 589.43C406.719 590.352 406.609 591.336 406.609 592.383ZM422.336 590.883L419.688 591.469C419.688 589.938 419.898 588.492 420.32 587.133C420.758 585.758 421.391 584.555 422.219 583.523C423.062 582.477 424.102 581.656 425.336 581.062C426.57 580.469 427.984 580.172 429.578 580.172C430.875 580.172 432.031 580.352 433.047 580.711C434.078 581.055 434.953 581.602 435.672 582.352C436.391 583.102 436.938 584.078 437.312 585.281C437.688 586.469 437.875 587.906 437.875 589.594V606H432.203V589.57C432.203 588.289 432.016 587.297 431.641 586.594C431.281 585.891 430.766 585.406 430.094 585.141C429.422 584.859 428.617 584.719 427.68 584.719C426.805 584.719 426.031 584.883 425.359 585.211C424.703 585.523 424.148 585.969 423.695 586.547C423.242 587.109 422.898 587.758 422.664 588.492C422.445 589.227 422.336 590.023 422.336 590.883ZM451.047 603.234L457.938 580.641H463.984L453.812 609.867C453.578 610.492 453.273 611.172 452.898 611.906C452.523 612.641 452.031 613.336 451.422 613.992C450.828 614.664 450.086 615.203 449.195 615.609C448.305 616.031 447.227 616.242 445.961 616.242C445.461 616.242 444.977 616.195 444.508 616.102C444.055 616.023 443.625 615.938 443.219 615.844L443.195 611.531C443.352 611.547 443.539 611.562 443.758 611.578C443.992 611.594 444.18 611.602 444.32 611.602C445.258 611.602 446.039 611.484 446.664 611.25C447.289 611.031 447.797 610.672 448.188 610.172C448.594 609.672 448.938 609 449.219 608.156L451.047 603.234ZM447.156 580.641L453.18 599.625L454.188 605.578L450.273 606.586L441.062 580.641H447.156ZM484.844 585.469V606H479.195V580.641H484.586L484.844 585.469ZM492.602 580.477L492.555 585.727C492.211 585.664 491.836 585.617 491.43 585.586C491.039 585.555 490.648 585.539 490.258 585.539C489.289 585.539 488.438 585.68 487.703 585.961C486.969 586.227 486.352 586.617 485.852 587.133C485.367 587.633 484.992 588.242 484.727 588.961C484.461 589.68 484.305 590.484 484.258 591.375L482.969 591.469C482.969 589.875 483.125 588.398 483.438 587.039C483.75 585.68 484.219 584.484 484.844 583.453C485.484 582.422 486.281 581.617 487.234 581.039C488.203 580.461 489.32 580.172 490.586 580.172C490.93 580.172 491.297 580.203 491.688 580.266C492.094 580.328 492.398 580.398 492.602 580.477ZM506.852 606.469C504.977 606.469 503.281 606.164 501.766 605.555C500.266 604.93 498.984 604.062 497.922 602.953C496.875 601.844 496.07 600.539 495.508 599.039C494.945 597.539 494.664 595.922 494.664 594.188V593.25C494.664 591.266 494.953 589.469 495.531 587.859C496.109 586.25 496.914 584.875 497.945 583.734C498.977 582.578 500.195 581.695 501.602 581.086C503.008 580.477 504.531 580.172 506.172 580.172C507.984 580.172 509.57 580.477 510.93 581.086C512.289 581.695 513.414 582.555 514.305 583.664C515.211 584.758 515.883 586.062 516.32 587.578C516.773 589.094 517 590.766 517 592.594V595.008H497.406V590.953H511.422V590.508C511.391 589.492 511.188 588.539 510.812 587.648C510.453 586.758 509.898 586.039 509.148 585.492C508.398 584.945 507.398 584.672 506.148 584.672C505.211 584.672 504.375 584.875 503.641 585.281C502.922 585.672 502.32 586.242 501.836 586.992C501.352 587.742 500.977 588.648 500.711 589.711C500.461 590.758 500.336 591.938 500.336 593.25V594.188C500.336 595.297 500.484 596.328 500.781 597.281C501.094 598.219 501.547 599.039 502.141 599.742C502.734 600.445 503.453 601 504.297 601.406C505.141 601.797 506.102 601.992 507.18 601.992C508.539 601.992 509.75 601.719 510.812 601.172C511.875 600.625 512.797 599.852 513.578 598.852L516.555 601.734C516.008 602.531 515.297 603.297 514.422 604.031C513.547 604.75 512.477 605.336 511.211 605.789C509.961 606.242 508.508 606.469 506.852 606.469ZM535.633 599.133C535.633 598.57 535.492 598.062 535.211 597.609C534.93 597.141 534.391 596.719 533.594 596.344C532.812 595.969 531.656 595.625 530.125 595.312C528.781 595.016 527.547 594.664 526.422 594.258C525.312 593.836 524.359 593.328 523.562 592.734C522.766 592.141 522.148 591.438 521.711 590.625C521.273 589.812 521.055 588.875 521.055 587.812C521.055 586.781 521.281 585.805 521.734 584.883C522.188 583.961 522.836 583.148 523.68 582.445C524.523 581.742 525.547 581.188 526.75 580.781C527.969 580.375 529.328 580.172 530.828 580.172C532.953 580.172 534.773 580.531 536.289 581.25C537.82 581.953 538.992 582.914 539.805 584.133C540.617 585.336 541.023 586.695 541.023 588.211H535.375C535.375 587.539 535.203 586.914 534.859 586.336C534.531 585.742 534.031 585.266 533.359 584.906C532.688 584.531 531.844 584.344 530.828 584.344C529.859 584.344 529.055 584.5 528.414 584.812C527.789 585.109 527.32 585.5 527.008 585.984C526.711 586.469 526.562 587 526.562 587.578C526.562 588 526.641 588.383 526.797 588.727C526.969 589.055 527.25 589.359 527.641 589.641C528.031 589.906 528.562 590.156 529.234 590.391C529.922 590.625 530.781 590.852 531.812 591.07C533.75 591.477 535.414 592 536.805 592.641C538.211 593.266 539.289 594.078 540.039 595.078C540.789 596.062 541.164 597.312 541.164 598.828C541.164 599.953 540.922 600.984 540.438 601.922C539.969 602.844 539.281 603.648 538.375 604.336C537.469 605.008 536.383 605.531 535.117 605.906C533.867 606.281 532.461 606.469 530.898 606.469C528.602 606.469 526.656 606.062 525.062 605.25C523.469 604.422 522.258 603.367 521.43 602.086C520.617 600.789 520.211 599.445 520.211 598.055H525.672C525.734 599.102 526.023 599.938 526.539 600.562C527.07 601.172 527.727 601.617 528.508 601.898C529.305 602.164 530.125 602.297 530.969 602.297C531.984 602.297 532.836 602.164 533.523 601.898C534.211 601.617 534.734 601.242 535.094 600.773C535.453 600.289 535.633 599.742 535.633 599.133ZM545.031 593.602V593.062C545.031 591.234 545.297 589.539 545.828 587.977C546.359 586.398 547.125 585.031 548.125 583.875C549.141 582.703 550.375 581.797 551.828 581.156C553.297 580.5 554.953 580.172 556.797 580.172C558.656 580.172 560.312 580.5 561.766 581.156C563.234 581.797 564.477 582.703 565.492 583.875C566.508 585.031 567.281 586.398 567.812 587.977C568.344 589.539 568.609 591.234 568.609 593.062V593.602C568.609 595.43 568.344 597.125 567.812 598.688C567.281 600.25 566.508 601.617 565.492 602.789C564.477 603.945 563.242 604.852 561.789 605.508C560.336 606.148 558.688 606.469 556.844 606.469C554.984 606.469 553.32 606.148 551.852 605.508C550.398 604.852 549.164 603.945 548.148 602.789C547.133 601.617 546.359 600.25 545.828 598.688C545.297 597.125 545.031 595.43 545.031 593.602ZM550.68 593.062V593.602C550.68 594.742 550.797 595.82 551.031 596.836C551.266 597.852 551.633 598.742 552.133 599.508C552.633 600.273 553.273 600.875 554.055 601.312C554.836 601.75 555.766 601.969 556.844 601.969C557.891 601.969 558.797 601.75 559.562 601.312C560.344 600.875 560.984 600.273 561.484 599.508C561.984 598.742 562.352 597.852 562.586 596.836C562.836 595.82 562.961 594.742 562.961 593.602V593.062C562.961 591.938 562.836 590.875 562.586 589.875C562.352 588.859 561.977 587.961 561.461 587.18C560.961 586.398 560.32 585.789 559.539 585.352C558.773 584.898 557.859 584.672 556.797 584.672C555.734 584.672 554.812 584.898 554.031 585.352C553.266 585.789 552.633 586.398 552.133 587.18C551.633 587.961 551.266 588.859 551.031 589.875C550.797 590.875 550.68 591.938 550.68 593.062ZM588.602 600.023V580.641H594.273V606H588.93L588.602 600.023ZM589.398 594.75L591.297 594.703C591.297 596.406 591.109 597.977 590.734 599.414C590.359 600.836 589.781 602.078 589 603.141C588.219 604.188 587.219 605.008 586 605.602C584.781 606.18 583.32 606.469 581.617 606.469C580.383 606.469 579.25 606.289 578.219 605.93C577.188 605.57 576.297 605.016 575.547 604.266C574.812 603.516 574.242 602.539 573.836 601.336C573.43 600.133 573.227 598.695 573.227 597.023V580.641H578.875V597.07C578.875 597.992 578.984 598.766 579.203 599.391C579.422 600 579.719 600.492 580.094 600.867C580.469 601.242 580.906 601.508 581.406 601.664C581.906 601.82 582.438 601.898 583 601.898C584.609 601.898 585.875 601.586 586.797 600.961C587.734 600.32 588.398 599.461 588.789 598.383C589.195 597.305 589.398 596.094 589.398 594.75ZM605.734 585.469V606H600.086V580.641H605.477L605.734 585.469ZM613.492 580.477L613.445 585.727C613.102 585.664 612.727 585.617 612.32 585.586C611.93 585.555 611.539 585.539 611.148 585.539C610.18 585.539 609.328 585.68 608.594 585.961C607.859 586.227 607.242 586.617 606.742 587.133C606.258 587.633 605.883 588.242 605.617 588.961C605.352 589.68 605.195 590.484 605.148 591.375L603.859 591.469C603.859 589.875 604.016 588.398 604.328 587.039C604.641 585.68 605.109 584.484 605.734 583.453C606.375 582.422 607.172 581.617 608.125 581.039C609.094 580.461 610.211 580.172 611.477 580.172C611.82 580.172 612.188 580.203 612.578 580.266C612.984 580.328 613.289 580.398 613.492 580.477ZM626.922 601.969C627.844 601.969 628.672 601.789 629.406 601.43C630.156 601.055 630.758 600.539 631.211 599.883C631.68 599.227 631.938 598.469 631.984 597.609H637.305C637.273 599.25 636.789 600.742 635.852 602.086C634.914 603.43 633.672 604.5 632.125 605.297C630.578 606.078 628.867 606.469 626.992 606.469C625.055 606.469 623.367 606.141 621.93 605.484C620.492 604.812 619.297 603.891 618.344 602.719C617.391 601.547 616.672 600.195 616.188 598.664C615.719 597.133 615.484 595.492 615.484 593.742V592.922C615.484 591.172 615.719 589.531 616.188 588C616.672 586.453 617.391 585.094 618.344 583.922C619.297 582.75 620.492 581.836 621.93 581.18C623.367 580.508 625.047 580.172 626.969 580.172C629 580.172 630.781 580.578 632.312 581.391C633.844 582.188 635.047 583.305 635.922 584.742C636.812 586.164 637.273 587.82 637.305 589.711H631.984C631.938 588.773 631.703 587.93 631.281 587.18C630.875 586.414 630.297 585.805 629.547 585.352C628.812 584.898 627.93 584.672 626.898 584.672C625.758 584.672 624.812 584.906 624.062 585.375C623.312 585.828 622.727 586.453 622.305 587.25C621.883 588.031 621.578 588.914 621.391 589.898C621.219 590.867 621.133 591.875 621.133 592.922V593.742C621.133 594.789 621.219 595.805 621.391 596.789C621.562 597.773 621.859 598.656 622.281 599.438C622.719 600.203 623.312 600.82 624.062 601.289C624.812 601.742 625.766 601.969 626.922 601.969ZM652.82 606.469C650.945 606.469 649.25 606.164 647.734 605.555C646.234 604.93 644.953 604.062 643.891 602.953C642.844 601.844 642.039 600.539 641.477 599.039C640.914 597.539 640.633 595.922 640.633 594.188V593.25C640.633 591.266 640.922 589.469 641.5 587.859C642.078 586.25 642.883 584.875 643.914 583.734C644.945 582.578 646.164 581.695 647.57 581.086C648.977 580.477 650.5 580.172 652.141 580.172C653.953 580.172 655.539 580.477 656.898 581.086C658.258 581.695 659.383 582.555 660.273 583.664C661.18 584.758 661.852 586.062 662.289 587.578C662.742 589.094 662.969 590.766 662.969 592.594V595.008H643.375V590.953H657.391V590.508C657.359 589.492 657.156 588.539 656.781 587.648C656.422 586.758 655.867 586.039 655.117 585.492C654.367 584.945 653.367 584.672 652.117 584.672C651.18 584.672 650.344 584.875 649.609 585.281C648.891 585.672 648.289 586.242 647.805 586.992C647.32 587.742 646.945 588.648 646.68 589.711C646.43 590.758 646.305 591.938 646.305 593.25V594.188C646.305 595.297 646.453 596.328 646.75 597.281C647.062 598.219 647.516 599.039 648.109 599.742C648.703 600.445 649.422 601 650.266 601.406C651.109 601.797 652.07 601.992 653.148 601.992C654.508 601.992 655.719 601.719 656.781 601.172C657.844 600.625 658.766 599.852 659.547 598.852L662.523 601.734C661.977 602.531 661.266 603.297 660.391 604.031C659.516 604.75 658.445 605.336 657.18 605.789C655.93 606.242 654.477 606.469 652.82 606.469Z" fill="white"/>
<g clip-path="url(#clip1_662_2544)">
<path d="M1350.19 95.0379V53.2553L1375.29 34.9509V130.556L1350.19 95.0379Z" stroke="white" stroke-width="3"/>
<path d="M1375.56 185.952L1376.01 186.586H1376.79H1402.97L1384.85 199.736H1355.44L1285.45 100.62L1282.73 96.7609V101.486V179.978L1257.5 198.293V41.9851L1268.15 34.1166L1375.56 185.952Z" stroke="white" stroke-width="3"/>
<path d="M1284.23 101.486V180.743L1256 201.236H1286.81L1315.04 180.743V145.05L1284.23 101.486Z" fill="white"/>
<path d="M1376.79 135.279V32H1407.59V185.086H1376.79L1268.49 32H1303.77L1376.79 135.279Z" fill="white"/>
</g>
</g>
<defs>
<filter id="filter0_f_662_2544" x="63.25" y="-262.615" width="1551.5" height="1193.62" filterUnits="userSpaceOnUse" color-interpolation-filters="sRGB">
<feFlood flood-opacity="0" result="BackgroundImageFix"/>
<feBlend mode="normal" in="SourceGraphic" in2="BackgroundImageFix" result="shape"/>
<feGaussianBlur stdDeviation="138" result="effect1_foregroundBlur_662_2544"/>
</filter>
<filter id="filter1_f_662_2544" x="-81.1831" y="-174.049" width="1154.05" height="1508.87" filterUnits="userSpaceOnUse" color-interpolation-filters="sRGB">
<feFlood flood-opacity="0" result="BackgroundImageFix"/>
<feBlend mode="normal" in="SourceGraphic" in2="BackgroundImageFix" result="shape"/>
<feGaussianBlur stdDeviation="138" result="effect1_foregroundBlur_662_2544"/>
</filter>
<filter id="filter2_f_662_2544" x="-11" y="-175" width="1138.18" height="1418" filterUnits="userSpaceOnUse" color-interpolation-filters="sRGB">
<feFlood flood-opacity="0" result="BackgroundImageFix"/>
<feBlend mode="normal" in="SourceGraphic" in2="BackgroundImageFix" result="shape"/>
<feGaussianBlur stdDeviation="138" result="effect1_foregroundBlur_662_2544"/>
</filter>
<radialGradient id="paint0_radial_662_2544" cx="0" cy="0" r="1" gradientUnits="userSpaceOnUse" gradientTransform="translate(720 512) rotate(90) scale(512 720)">
<stop stop-color="#5049C7"/>
<stop offset="1" stop-color="#7E9DB6"/>
</radialGradient>
<radialGradient id="paint1_radial_662_2544" cx="0" cy="0" r="1" gradientUnits="userSpaceOnUse" gradientTransform="translate(899.5 558) rotate(-177.925) scale(662.935 660.525)">
<stop stop-color="#FEA698"/>
<stop offset="0.368153" stop-color="#F37382"/>
<stop offset="1" stop-color="#F77C83" stop-opacity="0.06"/>
</radialGradient>
<linearGradient id="paint2_linear_662_2544" x1="929.744" y1="83.5659" x2="647" y2="582" gradientUnits="userSpaceOnUse">
<stop offset="0.015625" stop-color="#2E2491"/>
<stop offset="0.244792" stop-color="#9B5AEF" stop-opacity="0.53"/>
<stop offset="1" stop-color="#FF9D42" stop-opacity="0"/>
</linearGradient>
<linearGradient id="paint3_linear_662_2544" x1="250.354" y1="646.094" x2="762.346" y2="404.763" gradientUnits="userSpaceOnUse">
<stop offset="0.015625" stop-color="#2E2491"/>
<stop offset="0.244792" stop-color="#9B5AEF" stop-opacity="0.53"/>
<stop offset="1" stop-color="#FF9D42" stop-opacity="0"/>
</linearGradient>
<linearGradient id="paint4_linear_662_2544" x1="329" y1="435" x2="753.5" y2="617.5" gradientUnits="userSpaceOnUse">
<stop offset="0.21875" stop-color="#78CCDF"/>
<stop offset="1" stop-color="#78C9DA" stop-opacity="0.06"/>
</linearGradient>
<clipPath id="clip0_662_2544">
<rect width="1440" height="1024" fill="white"/>
</clipPath>
<clipPath id="clip1_662_2544">
<rect width="152" height="169.643" fill="white" transform="translate(1256 32)"/>
</clipPath>
</defs>
</svg>
